<svg width="424.6" height="193.6" xmlns="http://www.w3.org/2000/svg" class="logo" xml:space="preserve" version="1.1">

 <g>
  <title>Layer 1</title>
  <g id="svg_1">
   <g id="svg_2">
    <path id="svg_3" fill="#ffffff" d="m121.1,165.4c-0.7,0.7 -0.9,1 -1.2,1.3c-6.9,6.9 -13.8,13.8 -20.7,20.8c-0.8,0.9 -1.2,0.6 -1.9,-0.1c-6.8,-6.9 -13.7,-13.8 -20.6,-20.6c-0.8,-0.8 -0.8,-1.3 0,-2.1c6.9,-6.8 13.8,-13.7 20.6,-20.6c0.9,-0.9 1.3,-0.7 2.1,0.1c6.8,6.9 13.6,13.7 20.4,20.5c0.3,0.2 0.8,0.4 1.3,0.7z" class="st0"/>
    <path id="svg_4" fill="#ffffff" d="m120.2,28.4c-7.6,7.6 -15.1,15.1 -22.5,22.6c-7.5,-7.5 -15,-15 -22.5,-22.5c7.5,-7.5 15,-15 22.5,-22.5c7.5,7.4 15,14.9 22.5,22.4z" class="st0"/>
    <path id="svg_5" fill="#ffffff" d="m166.4,119.8c-7.6,-7.6 -15.1,-15.1 -22.7,-22.8c7.3,-7.3 14.6,-14.5 21.9,-21.8c0.7,-0.7 1,-0.5 1.6,0c7,7 14,14 21,21c0.5,0.5 0.9,0.8 0.1,1.6c-7.3,7.4 -14.6,14.7 -21.9,22z" class="st0"/>
    <path id="svg_6" fill="#ffffff" d="m29.8,74.4c7.3,7.4 14.5,14.7 21.8,21.9c0.8,0.8 0.5,1.1 -0.1,1.7c-6.9,6.9 -13.9,13.8 -20.7,20.8c-0.8,0.8 -1.2,0.8 -2,0c-6.8,-6.9 -13.7,-13.8 -20.6,-20.6c-0.4,-0.5 -1.3,-0.8 -0.4,-1.7c7.3,-7.3 14.5,-14.6 22,-22.1z" class="st0"/>
   </g>
   <g id="svg_7">
    <path id="svg_8" fill="#ffffff" d="m68.5,159.9c-4.4,-4.4 -8.9,-8.8 -13.3,-13.1c-0.5,-0.5 -0.8,-0.9 -0.1,-1.5c9.1,-9 18.2,-18.1 27.3,-27.1c0.2,0.3 0.5,0.7 0.7,1c4.8,4.8 9.6,9.7 14.3,14.5c1,1 1.5,0.3 2.2,-0.4c4.5,-4.5 8.9,-8.9 13.4,-13.4c0.5,-0.5 1,-1.2 1.8,-1.3c8.7,8.7 17.5,17.5 26.2,26.2c1.1,1 1,1.6 0,2.6c-4.7,4.6 -9.3,9.2 -13.9,13.8c-1,1.1 -1.5,1.1 -2.6,0c-8.7,-8.8 -17.4,-17.5 -26.2,-26.3c-6.9,6.9 -13.7,13.7 -20.5,20.6c-1.5,1.5 -3.1,3 -4.6,4.5c-1.5,-0.7 -3.1,-0.4 -4.7,-0.1z" class="st1"/>
    <path id="svg_9" fill="#ffffff" d="m77.5,113.7c-7.8,7.9 -15.7,15.7 -23.5,23.6c-1,1 -2.1,2 -3.1,3.1c-0.6,0.7 -1.1,0.6 -1.7,0c-4.9,-4.9 -9.8,-9.9 -14.7,-14.7c-1.1,-1.1 -0.2,-1.5 0.4,-2.1c8.2,-8.3 16.4,-16.5 24.7,-24.7c1.2,-1.2 1.4,-1.8 0,-3.2c-8.4,-8.2 -16.6,-16.6 -24.9,-24.8c-0.9,-0.9 -1,-1.3 -0.1,-2.3c4.8,-4.7 9.6,-9.5 14.3,-14.3c0.8,-0.8 1.3,-0.8 2.2,0c8.7,8.8 17.5,17.6 26.3,26.4c-0.1,0.2 -0.1,0.4 -0.2,0.6c-4.4,4.8 -9.2,9.3 -14,13.8c-2,1.9 -2.1,2 -0.1,4c4.2,4.2 8.3,8.3 12.5,12.5c0.6,0.7 1.7,1 1.9,2.1z" class="st1"/>
    <path id="svg_10" fill="#ffffff" d="m81.5,76.8c-6.6,-6.5 -13.2,-13.1 -19.8,-19.6c-2.4,-2.3 -4.7,-4.7 -7.1,-7c-0.9,-0.8 -1,-1.3 0,-2.3c4.7,-4.5 9.3,-9.1 13.8,-13.8c1.2,-1.2 1.8,-1.3 3.1,0c8.6,8.7 17.2,17.3 25.8,25.9c-0.5,0.6 -1,1.3 -1.6,1.8c-4.3,4.3 -8.7,8.7 -13,13c-0.5,0.5 -1.2,1 -1.2,2z" class="st1"/>
    <path id="svg_11" fill="#ffffff" d="m118.6,80.8c6.2,-6.2 12.4,-12.5 18.6,-18.7c2.9,-2.9 5.8,-5.8 8.6,-8.7c5.2,5.2 10.4,10.4 15.6,15.5c0.8,0.8 0.8,1.2 0,2c-8.8,8.7 -17.6,17.5 -26.4,26.2c-0.3,-0.3 -0.7,-0.5 -1,-0.8c-3.8,-3.7 -7.8,-7.3 -11.4,-11.2c-1.4,-1.4 -3,-2.6 -4,-4.3z" class="st2"/>
    <path id="svg_12" fill="#ffffff" d="m137.1,99.8c4.8,4.8 9.7,9.5 14.5,14.3c3.1,3.1 6.2,6.3 9.4,9.4c0.9,0.9 1.2,1.4 0.1,2.4c-4.8,4.7 -9.6,9.5 -14.3,14.3c-0.7,0.8 -1.2,0.9 -2,0.1c-8.7,-8.8 -17.5,-17.6 -26.3,-26.4c0,-0.6 0.5,-1 0.9,-1.4c4.5,-4.5 9,-9 13.6,-13.5c0.4,-0.4 0.7,-0.8 1.4,-0.9c0.4,1.5 1.3,2 2.7,1.7z" class="st1"/>
    <path id="svg_13" fill="#ffffff" d="m97.8,59.8c8.7,-8.8 17.5,-17.6 26.2,-26.4c0.7,-0.7 1.1,-1 1.9,-0.1c4.8,4.9 9.7,9.7 14.5,14.6c0.5,0.5 1.1,0.9 0.3,1.8c-8.9,8.8 -17.8,17.7 -26.7,26.5c-5.4,-5.5 -10.8,-10.9 -16.2,-16.4z" class="st2"/>
   </g>
   <g id="svg_14">
    <path id="svg_15" fill="#ffffff" d="m97.8,59.8c5.4,5.5 10.8,10.9 16.3,16.4c-1.9,2.5 -4.4,4.6 -6.6,6.9c-2.9,3 -5.9,5.9 -8.8,8.8c-0.6,0.6 -1.1,1.3 -2,0.3c-5,-5.1 -10.1,-10.3 -15.1,-15.4c0,-1 0.7,-1.5 1.2,-2c4.3,-4.3 8.7,-8.7 13,-13c0.6,-0.6 1.1,-1.2 1.6,-1.8c0.1,-0.2 0.2,-0.2 0.4,-0.2z" class="st3"/>
    <path id="svg_16" fill="#ffffff" d="m134.4,98.2c-0.6,0 -1,0.5 -1.4,0.9c-4.5,4.5 -9,9 -13.6,13.5c-0.4,0.4 -0.8,0.7 -0.9,1.4c-5.3,-5.2 -10.6,-10.5 -15.9,-15.7c-0.8,-0.7 -0.6,-1.2 0.1,-1.8c5.3,-5.2 10.5,-10.4 15.8,-15.7c1,1.7 2.7,2.9 4,4.4c3.6,3.9 7.6,7.5 11.4,11.2c0.3,0.3 0.6,0.5 1,0.8c0,0.2 0,0.4 0,0.6c-0.1,0 -0.3,0.2 -0.5,0.4z" class="st3"/>
    <path id="svg_17" fill="#ffffff" d="m77.5,113.7c-0.1,-1.1 -1.2,-1.4 -1.9,-2.1c-4.1,-4.2 -8.3,-8.3 -12.5,-12.5c-2,-2 -1.9,-2.2 0.1,-4c4.8,-4.4 9.5,-9 14,-13.8c0.1,-0.1 0.1,-0.4 0.2,-0.6c5.1,5 10.1,10 15.2,15c1.1,1.1 0.8,2.3 -0.2,3.3c-5,5 -10,9.8 -14.9,14.7z" class="st3"/>
    <path id="svg_18" fill="#ffffff" d="m114.8,118.6c-0.8,0.2 -1.3,0.8 -1.8,1.3c-4.5,4.5 -8.9,8.9 -13.4,13.4c-0.6,0.6 -1.2,1.4 -2.2,0.4c-4.8,-4.9 -9.5,-9.7 -14.3,-14.5c-0.3,-0.3 -0.5,-0.7 -0.7,-1c5.1,-5.2 10.2,-10.3 15.3,-15.5c0.5,-0.5 0.9,-0.6 1.5,0c5.2,5.3 10.4,10.6 15.6,15.9z" class="st3"/>
   </g>
   <path id="svg_19" fill="white" d="m68.5,159.9c1.6,-0.4 3.2,-0.6 4.7,0c-2.8,3.1 -1.9,3 -4.7,0z" class="st2"/>
   <path id="svg_20" fill="white" d="m134.4,98.2c0.2,-0.2 0.4,-0.3 0.6,-0.5c0.7,0.7 1.4,1.4 2.1,2.2c-1.4,0.2 -2.3,-0.3 -2.7,-1.7z" class="st2"/>
  </g>
  <g id="svg_21">
   <path id="svg_22" fill="white" d="m206,85.7l0,-26.2l9.2,0c3.2,0 5.6,0.6 7.2,1.8c1.6,1.2 2.5,3 2.5,5.4c0,1.3 -0.3,2.4 -1,3.4c-0.7,1 -1.6,1.7 -2.8,2.2c1.3,0.3 2.4,1 3.2,2c0.8,1 1.2,2.3 1.2,3.7c0,2.5 -0.8,4.4 -2.4,5.7c-1.6,1.3 -3.9,2 -6.9,2l-10.2,0zm5.4,-15.3l4,0c2.7,0 4.1,-1.1 4.1,-3.3c0,-1.2 -0.3,-2 -1,-2.6c-0.7,-0.5 -1.8,-0.8 -3.3,-0.8l-3.8,0l0,6.7zm0,3.9l0,7.1l4.6,0c1.3,0 2.3,-0.3 3,-0.9c0.7,-0.6 1.1,-1.4 1.1,-2.5c0,-2.4 -1.2,-3.6 -3.7,-3.7l-5,0z"/>
   <path id="svg_23" fill="white" d="m245.2,59.5l5.4,0l0,26.2l-5.4,0l0,-17.4l-10.5,17.4l-5.4,0l0,-26.2l5.4,0l0,17.4l10.5,-17.4z"/>
   <path id="svg_24" fill="white" d="m274.5,63.8l-8,0l0,21.8l-5.4,0l0,-21.8l-7.9,0l0,-4.4l21.3,0l0,4.4z"/>
   <path id="svg_25" fill="white" d="m293.3,74.3l-10.3,0l0,7l12.2,0l0,4.3l-17.6,0l0,-26.1l17.5,0l0,4.4l-12.1,0l0,6.2l10.4,0l0,4.2l-0.1,0z"/>
   <path id="svg_26" fill="white" d="m315.4,63.8l-11.7,0l0,5.1l4.2,0c3.1,0 5.5,0.7 7.3,2.2c1.8,1.5 2.7,3.5 2.7,6c0,2.5 -0.9,4.6 -2.7,6.1c-1.8,1.5 -4.2,2.3 -7.2,2.3l-9.9,0l0,-26l17.1,0l0,4.3l0.2,0zm-11.7,9.5l0,8.1l4.3,0c1.4,0 2.5,-0.4 3.3,-1.1c0.8,-0.8 1.2,-1.8 1.2,-3c0,-1.2 -0.4,-2.1 -1.2,-2.8c-0.8,-0.7 -1.9,-1 -3.2,-1.1l-4.4,0l0,-0.1z"/>
   <path id="svg_27" fill="white" d="m341.9,76.9c-0.2,2.8 -1.2,5 -3.1,6.7c-1.9,1.6 -4.4,2.4 -7.4,2.4c-3.4,0 -6,-1.1 -7.9,-3.4s-2.9,-5.4 -2.9,-9.3l0,-1.6c0,-2.5 0.4,-4.7 1.3,-6.7c0.9,-1.9 2.2,-3.4 3.8,-4.4c1.6,-1 3.6,-1.5 5.7,-1.5c3,0 5.5,0.8 7.3,2.4c1.8,1.6 2.9,3.9 3.2,6.8l-5.4,0c-0.1,-1.7 -0.6,-2.9 -1.4,-3.7c-0.8,-0.8 -2,-1.1 -3.7,-1.1c-1.8,0 -3.1,0.6 -4,1.9c-0.9,1.3 -1.4,3.3 -1.4,6l0,2c0,2.8 0.4,4.9 1.3,6.2c0.9,1.3 2.2,2 4.1,2c1.7,0 2.9,-0.4 3.7,-1.1c0.8,-0.8 1.3,-1.9 1.4,-3.5l5.4,0l0,-0.1z"/>
   <path id="svg_28" fill="white" d="m354,75l-3.1,0l0,10.7l-5.4,0l0,-26.2l5.4,0l0,10.5l2.5,0l6.4,-10.5l6.6,0l-8.1,12.4l8.9,13.8l-6.4,0l-6.8,-10.7z"/>
   <path id="svg_29" fill="white" d="m384.1,80.3l-9.5,0l-1.8,5.4l-5.7,0l9.8,-26.2l5,0l9.8,26.2l-5.7,0l-1.9,-5.4zm-8,-4.4l6.5,0l-3.3,-9.8l-3.2,9.8z"/>
   <path id="svg_30" fill="white" d="m406.2,85.7l0,-9.4l-4.4,0l-4.7,9.4l-5.8,0l5.6,-11.2c-2.7,-1.5 -4,-3.8 -4,-6.9c0,-2.6 0.8,-4.6 2.5,-6c1.7,-1.4 4,-2.1 7,-2.1l9.3,0l0,26.2l-5.5,0zm-8,-17.7c0,1.5 0.4,2.5 1.1,3.2c0.7,0.7 1.8,1 3.2,1l3.7,0l0,-8.3l-3.7,0c-2.9,-0.1 -4.3,1.3 -4.3,4.1z"/>
   <path id="svg_31" fill="white" d="m223.1,108.1l-11.7,0l0,5.1l4.2,0c3.1,0 5.5,0.7 7.3,2.2c1.8,1.5 2.7,3.5 2.7,6c0,2.5 -0.9,4.6 -2.7,6.1c-1.8,1.5 -4.2,2.3 -7.2,2.3l-9.9,0l0,-26.2l17.1,0l0,4.5l0.2,0zm-11.7,9.4l0,8.1l4.3,0c1.4,0 2.5,-0.4 3.3,-1.1c0.8,-0.8 1.2,-1.8 1.2,-3c0,-1.2 -0.4,-2.1 -1.2,-2.8c-0.8,-0.7 -1.9,-1 -3.2,-1.1l-4.4,0l0,-0.1z"/>
   <path id="svg_32" fill="white" d="m234.5,120.7l0,9.2l-5.4,0l0,-26.2l10.2,0c2,0 3.7,0.4 5.2,1.1c1.5,0.7 2.6,1.7 3.4,3.1c0.8,1.3 1.2,2.8 1.2,4.5c0,2.6 -0.9,4.6 -2.6,6.1c-1.8,1.5 -4.2,2.2 -7.3,2.2l-4.7,0zm0,-4.4l4.8,0c1.4,0 2.5,-0.3 3.3,-1c0.7,-0.7 1.1,-1.6 1.1,-2.9c0,-1.3 -0.4,-2.3 -1.1,-3.1c-0.8,-0.8 -1.8,-1.2 -3.1,-1.2l-4.9,0l0,8.2l-0.1,0z"/>
   <path id="svg_33" fill="white" d="m262.6,116.1l4.8,-12.4l5.8,0l-9.2,21.6l-0.7,1.4c-1.4,2.4 -3.4,3.5 -6.2,3.5l-1.9,-0.1l-0.1,-4.3c0.3,0 0.8,0.1 1.4,0.1c0.8,0 1.4,-0.1 1.8,-0.4c0.5,-0.3 0.8,-0.7 1.2,-1.5l0.7,-1.7l-9.2,-18.7l5.8,0l5.8,12.5z"/>
   <path id="svg_34" fill="white" d="m296.2,121.2c-0.2,2.8 -1.2,5 -3.1,6.7c-1.9,1.6 -4.4,2.4 -7.4,2.4c-3.4,0 -6,-1.1 -7.9,-3.4s-2.9,-5.4 -2.9,-9.3l0,-1.6c0,-2.5 0.4,-4.7 1.3,-6.7c0.9,-1.9 2.2,-3.4 3.8,-4.4c1.6,-1 3.6,-1.5 5.7,-1.5c3,0 5.5,0.8 7.3,2.4c1.8,1.6 2.9,3.9 3.2,6.8l-5.4,0c-0.1,-1.7 -0.6,-2.9 -1.4,-3.7s-2,-1.1 -3.7,-1.1c-1.8,0 -3.1,0.6 -4,1.9c-0.9,1.3 -1.4,3.3 -1.4,6l0,2c0,2.8 0.4,4.9 1.3,6.2c0.9,1.3 2.2,2 4.1,2c1.7,0 2.9,-0.4 3.7,-1.1c0.8,-0.8 1.3,-1.9 1.4,-3.5l5.4,0l0,-0.1z"/>
   <path id="svg_35" fill="white" d="m320.7,103.7l0,26.2l-5.4,0l0,-9.9c-1.6,0.3 -3.4,0.5 -5.1,0.5c-3.3,0 -5.8,-0.7 -7.6,-2.2c-1.7,-1.5 -2.6,-3.6 -2.7,-6.3l0,-8.3l5.4,0l0,8.2c0,1.5 0.4,2.6 1.1,3.2c0.7,0.7 2,1 3.7,1c1.8,0 3.5,-0.2 5.1,-0.5l0,-11.9l5.5,0z"/>
   <path id="svg_36" fill="white" d="m340.5,124.5l-9.5,0l-1.8,5.4l-5.7,0l9.8,-26.2l5,0l9.8,26.2l-5.7,0l-1.9,-5.4zm-8,-4.4l6.5,0l-3.3,-9.8l-3.2,9.8z"/>
   <path id="svg_37" fill="white" d="m368.1,108.1l-8,0l0,21.8l-5.4,0l0,-21.8l-7.9,0l0,-4.4l21.3,0l0,4.4z"/>
   <path id="svg_38" fill="white" d="m379.7,119.2l-3.1,0l0,10.7l-5.4,0l0,-26.2l5.4,0l0,10.5l2.5,0l6.4,-10.5l6.6,0l-8.1,12.4l8.9,13.8l-6.4,0l-6.8,-10.7z"/>
   <path id="svg_39" fill="white" d="m409.7,124.5l-9.5,0l-1.8,5.4l-5.7,0l9.8,-26.2l5,0l9.8,26.2l-5.7,0l-1.9,-5.4zm-8,-4.4l6.5,0l-3.3,-9.8l-3.2,9.8z"/>
  </g>
 </g>
</svg>