<svg version="1.1" id="Layer_1" xmlns="http://www.w3.org/2000/svg" xmlns:xlink="http://www.w3.org/1999/xlink" x="0px" y="0px" viewBox="0 0 520.6 193.6" style="enable-background:new 0 0 520.6 193.6;" xml:space="preserve" class="logo">
<style type="text/css">
	.st0{fill:#ffffff;}
	.st1{fill:#ffffff;}
	.st2{fill:#ffffff;}
	.st3{fill:#ffffff;}
	.logo>g>path{
	fill: white;
}
</style>
<g>
	<g>
		<path class="st0" d="M121.1,165.4c-0.7,0.7-0.9,1-1.2,1.3c-6.9,6.9-13.8,13.8-20.7,20.8c-0.8,0.9-1.2,0.6-1.9-0.1
			c-6.8-6.9-13.7-13.8-20.6-20.6c-0.8-0.8-0.8-1.3,0-2.1c6.9-6.8,13.8-13.7,20.6-20.6c0.9-0.9,1.3-0.7,2.1,0.1
			c6.8,6.9,13.6,13.7,20.4,20.5C120.1,164.9,120.6,165.1,121.1,165.4z"></path>
		<path class="st0" d="M120.2,28.4C112.6,36,105.1,43.5,97.7,51c-7.5-7.5-15-15-22.5-22.5c7.5-7.5,15-15,22.5-22.5
			C105.2,13.4,112.7,20.9,120.2,28.4z"></path>
		<path class="st0" d="M166.4,119.8c-7.6-7.6-15.1-15.1-22.7-22.8c7.3-7.3,14.6-14.5,21.9-21.8c0.7-0.7,1-0.5,1.6,0c7,7,14,14,21,21
			c0.5,0.5,0.9,0.8,0.1,1.6C181,105.2,173.7,112.5,166.4,119.8z"></path>
		<path class="st0" d="M29.8,74.4c7.3,7.4,14.5,14.7,21.8,21.9c0.8,0.8,0.5,1.1-0.1,1.7c-6.9,6.9-13.9,13.8-20.7,20.8
			c-0.8,0.8-1.2,0.8-2,0c-6.8-6.9-13.7-13.8-20.6-20.6c-0.4-0.5-1.3-0.8-0.4-1.7C15.1,89.2,22.3,81.9,29.8,74.4z"></path>
	</g>
	<g>
		<path class="st1" d="M68.5,159.9c-4.4-4.4-8.9-8.8-13.3-13.1c-0.5-0.5-0.8-0.9-0.1-1.5c9.1-9,18.2-18.1,27.3-27.1
			c0.2,0.3,0.5,0.7,0.7,1c4.8,4.8,9.6,9.7,14.3,14.5c1,1,1.5,0.3,2.2-0.4c4.5-4.5,8.9-8.9,13.4-13.4c0.5-0.5,1-1.2,1.8-1.3
			c8.7,8.7,17.5,17.5,26.2,26.2c1.1,1,1,1.6,0,2.6c-4.7,4.6-9.3,9.2-13.9,13.8c-1,1.1-1.5,1.1-2.6,0c-8.7-8.8-17.4-17.5-26.2-26.3
			c-6.9,6.9-13.7,13.7-20.5,20.6c-1.5,1.5-3.1,3-4.6,4.5C71.7,159.3,70.1,159.6,68.5,159.9z"></path>
		<path class="st1" d="M77.5,113.7c-7.8,7.9-15.7,15.7-23.5,23.6c-1,1-2.1,2-3.1,3.1c-0.6,0.7-1.1,0.6-1.7,0
			c-4.9-4.9-9.8-9.9-14.7-14.7c-1.1-1.1-0.2-1.5,0.4-2.1c8.2-8.3,16.4-16.5,24.7-24.7c1.2-1.2,1.4-1.8,0-3.2
			c-8.4-8.2-16.6-16.6-24.9-24.8c-0.9-0.9-1-1.3-0.1-2.3c4.8-4.7,9.6-9.5,14.3-14.3c0.8-0.8,1.3-0.8,2.2,0
			c8.7,8.8,17.5,17.6,26.3,26.4c-0.1,0.2-0.1,0.4-0.2,0.6c-4.4,4.8-9.2,9.3-14,13.8c-2,1.9-2.1,2-0.1,4c4.2,4.2,8.3,8.3,12.5,12.5
			C76.2,112.3,77.3,112.6,77.5,113.7z"></path>
		<path class="st1" d="M81.5,76.8c-6.6-6.5-13.2-13.1-19.8-19.6c-2.4-2.3-4.7-4.7-7.1-7c-0.9-0.8-1-1.3,0-2.3
			c4.7-4.5,9.3-9.1,13.8-13.8c1.2-1.2,1.8-1.3,3.1,0c8.6,8.7,17.2,17.3,25.8,25.9c-0.5,0.6-1,1.3-1.6,1.8c-4.3,4.3-8.7,8.7-13,13
			C82.2,75.3,81.5,75.8,81.5,76.8z"></path>
		<path class="st2" d="M118.6,80.8c6.2-6.2,12.4-12.5,18.6-18.7c2.9-2.9,5.8-5.8,8.6-8.7c5.2,5.2,10.4,10.4,15.6,15.5
			c0.8,0.8,0.8,1.2,0,2c-8.8,8.7-17.6,17.5-26.4,26.2c-0.3-0.3-0.7-0.5-1-0.8c-3.8-3.7-7.8-7.3-11.4-11.2
			C121.2,83.7,119.6,82.5,118.6,80.8z"></path>
		<path class="st1" d="M137.1,99.8c4.8,4.8,9.7,9.5,14.5,14.3c3.1,3.1,6.2,6.3,9.4,9.4c0.9,0.9,1.2,1.4,0.1,2.4
			c-4.8,4.7-9.6,9.5-14.3,14.3c-0.7,0.8-1.2,0.9-2,0.1c-8.7-8.8-17.5-17.6-26.3-26.4c0-0.6,0.5-1,0.9-1.4c4.5-4.5,9-9,13.6-13.5
			c0.4-0.4,0.7-0.8,1.4-0.9C134.8,99.6,135.7,100.1,137.1,99.8z"></path>
		<path class="st2" d="M97.8,59.8c8.7-8.8,17.5-17.6,26.2-26.4c0.7-0.7,1.1-1,1.9-0.1c4.8,4.9,9.7,9.7,14.5,14.6
			c0.5,0.5,1.1,0.9,0.3,1.8c-8.9,8.8-17.8,17.7-26.7,26.5C108.6,70.7,103.2,65.3,97.8,59.8z"></path>
	</g>
	<g>
		<path class="st3" d="M97.8,59.8c5.4,5.5,10.8,10.9,16.3,16.4c-1.9,2.5-4.4,4.6-6.6,6.9c-2.9,3-5.9,5.9-8.8,8.8
			c-0.6,0.6-1.1,1.3-2,0.3c-5-5.1-10.1-10.3-15.1-15.4c0-1,0.7-1.5,1.2-2c4.3-4.3,8.7-8.7,13-13c0.6-0.6,1.1-1.2,1.6-1.8
			C97.5,59.8,97.6,59.8,97.8,59.8z"></path>
		<path class="st3" d="M134.4,98.2c-0.6,0-1,0.5-1.4,0.9c-4.5,4.5-9,9-13.6,13.5c-0.4,0.4-0.8,0.7-0.9,1.4
			c-5.3-5.2-10.6-10.5-15.9-15.7c-0.8-0.7-0.6-1.2,0.1-1.8c5.3-5.2,10.5-10.4,15.8-15.7c1,1.7,2.7,2.9,4,4.4
			c3.6,3.9,7.6,7.5,11.4,11.2c0.3,0.3,0.6,0.5,1,0.8c0,0.2,0,0.4,0,0.6C134.8,97.8,134.6,98,134.4,98.2z"></path>
		<path class="st3" d="M77.5,113.7c-0.1-1.1-1.2-1.4-1.9-2.1c-4.1-4.2-8.3-8.3-12.5-12.5c-2-2-1.9-2.2,0.1-4c4.8-4.4,9.5-9,14-13.8
			c0.1-0.1,0.1-0.4,0.2-0.6c5.1,5,10.1,10,15.2,15c1.1,1.1,0.8,2.3-0.2,3.3C87.4,104,82.4,108.8,77.5,113.7z"></path>
		<path class="st3" d="M114.8,118.6c-0.8,0.2-1.3,0.8-1.8,1.3c-4.5,4.5-8.9,8.9-13.4,13.4c-0.6,0.6-1.2,1.4-2.2,0.4
			c-4.8-4.9-9.5-9.7-14.3-14.5c-0.3-0.3-0.5-0.7-0.7-1c5.1-5.2,10.2-10.3,15.3-15.5c0.5-0.5,0.9-0.6,1.5,0
			C104.4,108,109.6,113.3,114.8,118.6z"></path>
	</g>
	<path class="st2" d="M68.5,159.9c1.6-0.4,3.2-0.6,4.7,0C70.4,163,71.3,162.9,68.5,159.9z"></path>
	<path class="st2" d="M134.4,98.2c0.2-0.2,0.4-0.3,0.6-0.5c0.7,0.7,1.4,1.4,2.1,2.2C135.7,100.1,134.8,99.6,134.4,98.2z"></path>
</g>
<g>
	<path d="M206,85.7V59.5h9.2c3.2,0,5.6,0.6,7.2,1.8c1.6,1.2,2.5,3,2.5,5.4c0,1.3-0.3,2.4-1,3.4c-0.7,1-1.6,1.7-2.8,2.2
		c1.3,0.3,2.4,1,3.2,2c0.8,1,1.2,2.3,1.2,3.7c0,2.5-0.8,4.4-2.4,5.7c-1.6,1.3-3.9,2-6.9,2H206z M211.4,70.4h4c2.7,0,4.1-1.1,4.1-3.3
		c0-1.2-0.3-2-1-2.6c-0.7-0.5-1.8-0.8-3.3-0.8h-3.8V70.4z M211.4,74.3v7.1h4.6c1.3,0,2.3-0.3,3-0.9c0.7-0.6,1.1-1.4,1.1-2.5
		c0-2.4-1.2-3.6-3.7-3.7H211.4z"></path>
	<path d="M245.2,59.5h5.4v26.2h-5.4V68.3l-10.5,17.4h-5.4V59.5h5.4v17.4L245.2,59.5z"></path>
	<path d="M274.5,63.8h-8v21.8h-5.4V63.8h-7.9v-4.4h21.3V63.8z"></path>
	<path d="M293.3,74.3H283v7h12.2v4.3h-17.6V59.5h17.5v4.4H283v6.2h10.4V74.3z"></path>
	<path d="M315.4,63.8h-11.7v5.1h4.2c3.1,0,5.5,0.7,7.3,2.2c1.8,1.5,2.7,3.5,2.7,6c0,2.5-0.9,4.6-2.7,6.1c-1.8,1.5-4.2,2.3-7.2,2.3
		h-9.9V59.5h17.1V63.8z M303.7,73.3v8.1h4.3c1.4,0,2.5-0.4,3.3-1.1c0.8-0.8,1.2-1.8,1.2-3c0-1.2-0.4-2.1-1.2-2.8
		c-0.8-0.7-1.9-1-3.2-1.1H303.7z"></path>
	<path d="M341.9,76.9c-0.2,2.8-1.2,5-3.1,6.7c-1.9,1.6-4.4,2.4-7.4,2.4c-3.4,0-6-1.1-7.9-3.4s-2.9-5.4-2.9-9.3v-1.6
		c0-2.5,0.4-4.7,1.3-6.7c0.9-1.9,2.2-3.4,3.8-4.4c1.6-1,3.6-1.5,5.7-1.5c3,0,5.5,0.8,7.3,2.4c1.8,1.6,2.9,3.9,3.2,6.8h-5.4
		c-0.1-1.7-0.6-2.9-1.4-3.7c-0.8-0.8-2-1.1-3.7-1.1c-1.8,0-3.1,0.6-4,1.9c-0.9,1.3-1.4,3.3-1.4,6v2c0,2.8,0.4,4.9,1.3,6.2
		c0.9,1.3,2.2,2,4.1,2c1.7,0,2.9-0.4,3.7-1.1c0.8-0.8,1.3-1.9,1.4-3.5H341.9z"></path>
	<path d="M354,75h-3.1v10.7h-5.4V59.5h5.4V70h2.5l6.4-10.5h6.6l-8.1,12.4l8.9,13.8h-6.4L354,75z"></path>
	<path d="M384.1,80.3h-9.5l-1.8,5.4h-5.7l9.8-26.2h5l9.8,26.2h-5.7L384.1,80.3z M376.1,75.9h6.5l-3.3-9.8L376.1,75.9z"></path>
	<path d="M406.2,85.7v-9.4h-4.4l-4.7,9.4h-5.8l5.6-11.2c-2.7-1.5-4-3.8-4-6.9c0-2.6,0.8-4.6,2.5-6c1.7-1.4,4-2.1,7-2.1h9.3v26.2
		H406.2z M398.2,68c0,1.5,0.4,2.5,1.1,3.2c0.7,0.7,1.8,1,3.2,1h3.7v-8.3h-3.7C399.6,63.8,398.2,65.2,398.2,68z"></path>
	<path d="M223.1,108.1h-11.7v5.1h4.2c3.1,0,5.5,0.7,7.3,2.2c1.8,1.5,2.7,3.5,2.7,6c0,2.5-0.9,4.6-2.7,6.1c-1.8,1.5-4.2,2.3-7.2,2.3
		h-9.9v-26.2h17.1V108.1z M211.4,117.5v8.1h4.3c1.4,0,2.5-0.4,3.3-1.1c0.8-0.8,1.2-1.8,1.2-3c0-1.2-0.4-2.1-1.2-2.8
		c-0.8-0.7-1.9-1-3.2-1.1H211.4z"></path>
	<path d="M234.5,120.7v9.2h-5.4v-26.2h10.2c2,0,3.7,0.4,5.2,1.1c1.5,0.7,2.6,1.7,3.4,3.1c0.8,1.3,1.2,2.8,1.2,4.5
		c0,2.6-0.9,4.6-2.6,6.1c-1.8,1.5-4.2,2.2-7.3,2.2H234.5z M234.5,116.3h4.8c1.4,0,2.5-0.3,3.3-1c0.7-0.7,1.1-1.6,1.1-2.9
		c0-1.3-0.4-2.3-1.1-3.1c-0.8-0.8-1.8-1.2-3.1-1.2h-4.9V116.3z"></path>
	<path d="M262.6,116.1l4.8-12.4h5.8l-9.2,21.6l-0.7,1.4c-1.4,2.4-3.4,3.5-6.2,3.5l-1.9-0.1l-0.1-4.3c0.3,0,0.8,0.1,1.4,0.1
		c0.8,0,1.4-0.1,1.8-0.4c0.5-0.3,0.8-0.7,1.2-1.5l0.7-1.7l-9.2-18.7h5.8L262.6,116.1z"></path>
	<path d="M296.2,121.2c-0.2,2.8-1.2,5-3.1,6.7c-1.9,1.6-4.4,2.4-7.4,2.4c-3.4,0-6-1.1-7.9-3.4s-2.9-5.4-2.9-9.3v-1.6
		c0-2.5,0.4-4.7,1.3-6.7c0.9-1.9,2.2-3.4,3.8-4.4c1.6-1,3.6-1.5,5.7-1.5c3,0,5.5,0.8,7.3,2.4c1.8,1.6,2.9,3.9,3.2,6.8h-5.4
		c-0.1-1.7-0.6-2.9-1.4-3.7s-2-1.1-3.7-1.1c-1.8,0-3.1,0.6-4,1.9c-0.9,1.3-1.4,3.3-1.4,6v2c0,2.8,0.4,4.9,1.3,6.2
		c0.9,1.3,2.2,2,4.1,2c1.7,0,2.9-0.4,3.7-1.1c0.8-0.8,1.3-1.9,1.4-3.5H296.2z"></path>
	<path d="M320.7,103.7v26.2h-5.4V120c-1.6,0.3-3.4,0.5-5.1,0.5c-3.3,0-5.8-0.7-7.6-2.2c-1.7-1.5-2.6-3.6-2.7-6.3v-8.3h5.4v8.2
		c0,1.5,0.4,2.6,1.1,3.2c0.7,0.7,2,1,3.7,1c1.8,0,3.5-0.2,5.1-0.5v-11.9H320.7z"></path>
	<path d="M340.5,124.5H331l-1.8,5.4h-5.7l9.8-26.2h5l9.8,26.2h-5.7L340.5,124.5z M332.5,120.1h6.5l-3.3-9.8L332.5,120.1z"></path>
	<path d="M368.1,108.1h-8v21.8h-5.4v-21.8h-7.9v-4.4h21.3V108.1z"></path>
	<path d="M379.7,119.2h-3.1v10.7h-5.4v-26.2h5.4v10.5h2.5l6.4-10.5h6.6l-8.1,12.4l8.9,13.8h-6.4L379.7,119.2z"></path>
	<path d="M409.7,124.5h-9.5l-1.8,5.4h-5.7l9.8-26.2h5l9.8,26.2h-5.7L409.7,124.5z M401.7,120.1h6.5l-3.3-9.8L401.7,120.1z"></path>
</g>
</svg>